<?xml version="1.0" standalone="no"?>
<!DOCTYPE svg PUBLIC "-//W3C//DTD SVG 20010904//EN"
 "http://www.w3.org/TR/2001/REC-SVG-20010904/DTD/svg10.dtd">
<svg version="1.0" xmlns="http://www.w3.org/2000/svg"
 width="912.000000pt" height="295.000000pt" viewBox="0 0 912.000000 295.000000"
 preserveAspectRatio="xMidYMid meet">

<g transform="translate(0.000000,295.000000) scale(0.100000,-0.100000)"
fill="#FFFFFF" stroke="none">
<path d="M1310 2743 c0 -43 -3 -101 -6 -129 l-6 -51 -52 -16 c-62 -20 -153
-73 -219 -129 -33 -27 -52 -37 -60 -30 -7 5 -56 43 -109 85 -53 43 -101 77
-105 77 -5 0 -72 -64 -150 -142 l-142 -143 80 -110 c44 -60 83 -115 86 -122 3
-7 -17 -47 -43 -89 -26 -42 -62 -116 -80 -163 l-33 -86 -118 -6 c-65 -4 -126
-7 -135 -8 -17 -1 -18 -19 -18 -225 l0 -224 97 -6 c166 -12 161 -10 179 -75
20 -67 75 -179 117 -238 37 -52 36 -55 -57 -172 -36 -46 -66 -89 -66 -95 0 -6
63 -74 139 -150 98 -98 143 -136 152 -130 8 4 58 43 112 87 l98 79 40 -37 c74
-66 218 -145 267 -145 25 0 32 -34 32 -151 l0 -89 198 2 197 3 3 322 2 323
-109 0 c-181 0 -309 36 -428 119 -96 68 -165 149 -218 256 -176 359 -28 796
330 966 111 53 179 69 312 70 l113 1 0 318 c0 300 -1 318 -18 322 -10 3 -100
6 -200 7 l-182 2 0 -78z"/>
<path d="M2265 2576 c-59 -26 -101 -103 -91 -167 6 -37 6 -37 -153 -188 l-160
-151 -158 0 -158 0 -25 -38 c-14 -20 -26 -40 -28 -44 -2 -5 93 -8 210 -8 l214
0 159 155 c128 124 164 154 180 149 11 -4 45 -9 75 -11 46 -4 61 0 89 19 19
13 43 38 54 56 25 43 25 122 -2 165 -40 66 -135 94 -206 63z m115 -98 c42 -45
15 -118 -45 -118 -36 0 -75 36 -75 70 0 10 9 29 21 44 26 33 70 35 99 4z"/>
<path d="M2715 2146 c-17 -7 -43 -27 -57 -45 l-27 -31 -172 0 -172 0 -102
-100 -101 -100 -276 0 -277 0 -35 -37 c-20 -21 -36 -41 -36 -45 0 -5 149 -8
331 -8 l331 0 103 100 103 100 140 0 140 0 22 -45 c39 -80 112 -116 193 -94
134 35 161 206 45 292 -34 25 -113 32 -153 13z m110 -101 c34 -33 33 -77 -1
-104 -35 -27 -59 -26 -89 4 -34 33 -33 77 1 104 35 27 59 26 89 -4z"/>
<path d="M3310 1525 l0 -475 255 0 255 0 0 65 0 65 -180 0 -180 0 0 150 0 151
163 -2 162 -1 3 61 3 61 -166 0 -165 0 0 130 0 130 180 0 180 0 0 70 0 70
-255 0 -255 0 0 -475z"/>
<path d="M6797 1993 c-4 -3 -7 -217 -7 -475 l0 -468 70 0 70 0 0 204 c0 234 3
256 40 296 55 59 152 44 195 -30 18 -32 20 -56 23 -252 l4 -218 64 0 64 0 0
241 c0 152 -4 256 -11 280 -45 150 -236 199 -351 91 l-28 -26 0 182 0 182 -63
0 c-35 0 -67 -3 -70 -7z"/>
<path d="M7485 1975 c-53 -53 -15 -145 60 -145 39 0 85 41 85 77 0 31 -25 79
-45 87 -35 13 -76 6 -100 -19z"/>
<path d="M3920 1715 c0 -3 45 -76 100 -164 55 -88 100 -162 100 -165 0 -3 -47
-78 -105 -166 -58 -88 -105 -163 -105 -165 0 -3 32 -5 70 -5 l70 0 28 43 c15
24 45 76 67 115 22 39 43 72 47 72 3 0 37 -52 74 -115 l67 -115 73 0 c41 0 74
2 74 5 0 2 -45 76 -100 164 -55 88 -100 163 -100 166 0 4 43 79 95 166 52 88
95 160 95 162 0 1 -33 2 -72 1 l-73 -1 -60 -111 c-33 -61 -62 -112 -65 -112
-3 0 -32 51 -66 112 l-61 111 -76 3 c-43 1 -77 1 -77 -1z"/>
<path d="M4570 1384 l0 -335 72 3 71 3 -2 185 c-2 213 7 275 48 314 56 53 142
41 178 -27 15 -27 18 -67 21 -255 l4 -223 64 3 65 3 2 215 c2 239 6 257 66
297 43 29 59 29 102 0 52 -35 58 -66 58 -304 l1 -213 70 0 70 0 0 225 c0 123
-5 247 -11 274 -23 106 -101 170 -210 171 -60 0 -113 -26 -154 -77 l-20 -24
-22 29 c-32 43 -98 72 -164 72 -44 0 -65 -6 -102 -30 -26 -16 -47 -34 -47 -40
0 -5 -4 -10 -10 -10 -5 0 -10 17 -10 38 l0 38 -70 1 -70 1 0 -334z"/>
<path d="M5713 1706 c-47 -15 -113 -54 -113 -66 0 -10 40 -100 44 -100 2 0 25
10 52 22 55 24 145 29 181 9 28 -14 53 -61 53 -98 l0 -28 -83 -1 c-105 -1
-173 -23 -221 -71 -95 -95 -65 -257 59 -314 78 -36 187 -18 239 40 22 24 36
14 36 -27 0 -22 3 -23 61 -20 l61 3 -2 214 c0 117 -5 236 -11 263 -24 109
-118 181 -244 185 -39 2 -89 -3 -112 -11z m225 -408 c8 -101 -89 -169 -177
-123 -68 35 -51 121 29 154 14 6 52 9 85 8 l60 -2 3 -37z"/>
<path d="M6404 1710 c-54 -17 -128 -73 -161 -123 -45 -67 -58 -117 -58 -222 0
-76 4 -99 26 -146 51 -108 139 -168 260 -177 75 -5 147 9 196 39 l32 20 -20
52 c-11 29 -22 53 -24 55 -2 2 -21 -6 -44 -17 -81 -42 -186 -20 -239 49 -64
84 -55 220 21 298 48 50 152 69 207 37 39 -22 46 -19 68 35 l21 50 -40 27
c-35 23 -53 27 -127 30 -48 1 -101 -2 -118 -7z"/>
<path d="M7470 1383 l0 -333 70 0 70 0 0 333 0 334 -70 -1 -70 -1 0 -332z"/>
<path d="M7780 1716 c0 0 -1 -151 -3 -334 l-2 -332 73 0 72 0 0 212 c0 192 2
216 20 253 39 80 145 99 202 36 41 -46 48 -89 48 -303 l0 -198 70 0 70 0 0
228 c0 133 -5 243 -11 266 -45 164 -224 230 -353 131 l-45 -34 -3 37 -3 37
-67 1 c-38 1 -68 1 -68 0z"/>
<path d="M8590 1711 c-25 -8 -93 -42 -118 -59 -10 -7 -8 -18 7 -53 11 -25 23
-48 27 -51 3 -4 25 2 47 14 54 27 153 29 192 4 27 -18 55 -70 55 -104 0 -17
-9 -18 -94 -18 -82 0 -100 -4 -150 -28 -93 -46 -133 -123 -115 -222 17 -92 94
-153 191 -154 57 0 90 12 139 51 l38 30 3 -33 3 -33 63 -3 62 -3 0 224 c0 244
-7 290 -54 352 -45 59 -107 88 -195 91 -42 2 -87 0 -101 -5z m208 -406 c12
-104 -87 -177 -178 -130 -21 11 -31 25 -36 50 -13 71 47 116 151 112 59 -2 60
-3 63 -32z"/>
<path d="M1384 1622 c-46 -29 -72 -68 -80 -117 -8 -57 8 -103 52 -146 34 -32
38 -34 109 -34 64 0 77 3 100 25 15 14 33 37 41 53 l15 27 498 0 498 0 27 -40
c36 -55 75 -73 148 -68 101 7 152 67 146 168 -5 64 -26 99 -79 129 -77 44
-166 19 -218 -62 l-24 -37 -499 0 -498 0 -14 34 c-21 49 -69 79 -135 84 -43 2
-63 -2 -87 -16z m126 -92 c43 -43 14 -120 -45 -120 -38 0 -75 37 -75 76 0 54
80 84 120 44z m1315 -5 c46 -46 22 -115 -41 -115 -43 0 -74 29 -74 70 0 64 70
91 115 45z"/>
<path d="M1460 1170 c0 -5 14 -25 31 -45 l31 -35 297 0 296 0 90 -95 90 -95
166 0 c165 0 166 0 177 -24 34 -74 152 -108 226 -64 100 59 101 216 1 278 -76
47 -202 9 -235 -69 l-12 -31 -137 0 -137 0 -93 95 -94 95 -348 0 c-218 0 -349
-4 -349 -10z m1370 -170 c28 -28 27 -84 -2 -104 -72 -51 -153 30 -102 102 20
29 76 30 104 2z"/>
<path d="M1529 933 c-16 -19 -28 -40 -26 -46 2 -8 57 -13 179 -15 l176 -2 148
-157 149 -156 1 -66 c1 -78 21 -123 67 -151 99 -61 215 -20 247 87 18 60 6
110 -39 154 -48 49 -105 65 -160 45 l-41 -14 -122 131 c-68 73 -142 152 -165
177 l-42 45 -170 1 -171 2 -31 -35z m827 -406 c35 -31 38 -82 5 -109 -32 -25
-67 -23 -96 7 -39 38 -30 86 20 113 29 17 41 15 71 -11z"/>
</g>
</svg>
